<?xml version="1.0" standalone="no"?>
<!DOCTYPE svg PUBLIC "-//W3C//DTD SVG 20010904//EN"
 "http://www.w3.org/TR/2001/REC-SVG-20010904/DTD/svg10.dtd">
<svg version="1.0" xmlns="http://www.w3.org/2000/svg"
 width="500.000000pt" height="500.000000pt" viewBox="0 0 500.000000 500.000000"
 preserveAspectRatio="xMidYMid meet">
<circle cx="250" cy="250" r="250" fill="#e9ebe6" />
<g transform="translate(0.000000,500.000000) scale(0.100000,-0.100000)"
fill="#373b30" stroke-width="100" stroke="#373b30" >
<path d="M2984 3791 c-239 -50 -462 -221 -573 -440 -12 -22 -23 -41 -25 -41
-3 0 -33 8 -68 17 -88 24 -387 24 -473 0 -187 -51 -293 -101 -413 -193 -265
-202 -414 -486 -429 -819 -13 -299 87 -568 292 -784 156 -163 345 -271 558
-318 112 -24 340 -24 454 1 102 21 250 81 328 131 l59 37 85 -26 c263 -78 463
-47 596 93 40 43 28 58 -65 86 -139 41 -228 95 -262 157 -20 36 -17 60 17 134
24 52 66 185 82 259 8 38 11 40 48 43 375 26 678 269 776 622 34 122 34 318 0
440 -68 244 -233 438 -465 545 -150 70 -352 91 -522 56z m380 -75 c133 -37
242 -101 343 -203 151 -153 222 -325 223 -538 0 -223 -75 -405 -229 -554 -134
-130 -289 -203 -462 -217 l-79 -7 0 64 c-1 426 -245 811 -631 992 -38 17 -69
37 -69 43 0 23 101 166 159 222 105 103 243 179 380 208 84 17 284 12 365 -10z
m-1090 -452 c38 -7 73 -17 77 -21 4 -5 -2 -51 -13 -103 -23 -111 -21 -258 7
-375 21 -91 92 -236 149 -305 92 -110 99 -125 86 -164 -15 -46 -63 -104 -132
-161 -34 -28 -58 -55 -58 -67 0 -32 81 -62 170 -62 103 -1 185 29 279 101 l75
56 56 -11 c31 -7 66 -12 78 -12 13 0 25 -6 28 -14 9 -23 -34 -182 -72 -269
-37 -85 -44 -149 -20 -196 33 -63 161 -149 274 -185 31 -10 28 -19 -16 -44
-48 -26 -152 -52 -212 -52 -70 1 -194 26 -271 55 l-70 27 -42 -29 c-256 -180
-617 -224 -920 -112 -332 123 -582 419 -643 764 -27 152 -14 365 31 500 30 92
107 232 169 312 237 300 619 441 990 367z m234 -76 c352 -168 582 -524 582
-900 l0 -88 -42 6 c-40 6 -100 19 -140 30 -11 3 -34 -10 -60 -34 -95 -86 -192
-132 -279 -132 -70 0 -73 7 -23 60 70 73 97 118 102 171 6 66 -1 87 -49 138
-136 145 -209 329 -209 523 0 115 25 258 45 258 3 0 36 -14 73 -32z"/>
</g>
</svg>
